<svg xmlns="http://www.w3.org/2000/svg" viewBox="0 0 1200 760" role="img" aria-labelledby="t d"><title id="t">Enterprise Intelligence evidence graph</title><desc id="d">Evidence lineage from governed data to stateful claims and decisions.</desc><defs><linearGradient id="bg" x1="0" y1="0" x2="1" y2="1"><stop stop-color="#e6ecf5"/><stop offset="1" stop-color="#f0f2f5"/></linearGradient></defs><rect width="1200" height="760" fill="url(#bg)"/><g stroke="#8497b7" stroke-width="3" fill="none"><line x1="220" y1="235" x2="510" y2="160"/><line x1="220" y1="235" x2="510" y2="380"/><line x1="510" y1="160" x2="830" y2="275"/><line x1="510" y1="380" x2="830" y2="275"/><line x1="830" y1="275" x2="1000" y2="470"/></g><g fill="#fff" stroke="#8497b7" stroke-width="3"><circle cx="220" cy="235" r="58"/><circle cx="510" cy="160" r="58"/><circle cx="510" cy="380" r="58"/><circle cx="830" cy="275" r="64"/><circle cx="1000" cy="470" r="68"/></g><g font-family="ui-monospace,SFMono-Regular,Menlo,monospace" fill="#435572" text-anchor="middle" font-size="18" font-weight="700"><text x="220" y="228">DATA</text><text x="220" y="250">SOURCE</text><text x="510" y="154">CLAIM</text><text x="510" y="176">A</text><text x="510" y="374">CLAIM</text><text x="510" y="396">B</text><text x="830" y="269">EVIDENCE</text><text x="830" y="291">LINEAGE</text><text x="1000" y="464">DECISION</text><text x="1000" y="486">STATE</text></g><g font-family="Inter,Arial,sans-serif"><text x="90" y="625" fill="#263652" font-size="50" font-weight="800">Evidence → Decision</text><text x="90" y="675" fill="#667792" font-size="23">Governed data · Stateful claims · Evidence lineage</text></g></svg>